<?xml version="1.0" encoding="utf-8" standalone="no"?>
<!DOCTYPE svg PUBLIC "-//W3C//DTD SVG 1.1//EN" "http://www.w3.org/Graphics/SVG/1.1/DTD/svg11.dtd">
<svg xmlns="http://www.w3.org/2000/svg" xmlns:xl="http://www.w3.org/1999/xlink" version="1.1" viewBox="20 21 691 682" width="691pt" height="682pt" xmlns:dc="http://purl.org/dc/elements/1.1/"><metadata> Produced by OmniGraffle 6.0 <dc:date>2014-11-12 06:27Z</dc:date></metadata><defs/><g stroke="none" stroke-opacity="1" stroke-dasharray="none" fill="none" fill-opacity="1"><title>Canvas 1</title><rect fill="white" width="712" height="704"/><g><title>Layer 1</title><path d="M 119.716536 26.141733 L 201.92126 67.244096 L 119.716536 108.34646 Z" fill="#2cb68e"/><path d="M 119.716536 116.4252 L 201.92126 157.52756 L 119.716536 198.62992 Z" fill="#3498ed"/><path d="M 119.716536 207.07087 L 201.92126 248.17323 L 119.716536 289.2756 Z" fill="#2cb68e"/><path d="M 210.92126 71.141733 L 128.71654 112.244096 L 210.92126 153.34646 Z" fill="#2cb68e"/><path d="M 210.92126 161.4252 L 128.71654 202.52756 L 210.92126 243.62992 Z" fill="#2cb68e"/><path d="M 210.92126 252.07087 L 128.71654 293.17323 L 210.92126 334.2756 Z" fill="#2cb68e"/><path d="M 129.6378 21.889765 L 210.4252 21.889765 L 210.4252 62.992127 Z" fill="#f2c108"/><path d="M 119.716536 297.71654 L 201.92126 338.8189 L 119.716536 379.92126 Z" fill="#2cb68e"/><path d="M 119.716536 388 L 201.92126 429.10237 L 119.716536 470.20473 Z" fill="#2cb68e"/><path d="M 119.716536 478.64568 L 201.92126 519.74804 L 119.716536 560.8504 Z" fill="#2cb68e"/><path d="M 210.92126 342.71654 L 128.71654 383.8189 L 210.92126 424.92126 Z" fill="#2cb68e"/><path d="M 210.92126 433 L 128.71654 474.10237 L 210.92126 515.20473 Z" fill="#2cb68e"/><path d="M 210.92126 523.64568 L 128.71654 564.74804 L 210.92126 605.8504 Z" fill="#2cb68e"/><path d="M 119.22047 566.58116 L 201.4252 607.68352 L 119.22047 648.7859 Z" fill="#2cb68e"/><path d="M 210.4252 611.58116 L 128.22047 652.68352 L 210.4252 693.7859 Z" fill="#2cb68e"/><path d="M 200.92914 698.3607 L 120.14173 698.3607 L 120.14173 657.25832 Z" fill="#f2c108"/><path d="M 319.54204 27.275591 L 401.74676 68.377954 L 319.54204 109.480316 Z" fill="#2cb68e"/><path d="M 319.54204 117.559056 L 401.74676 158.66142 L 319.54204 199.76378 Z" fill="#2cb68e"/><path d="M 319.54204 208.20473 L 401.74676 249.30709 L 319.54204 290.40945 Z" fill="#2cb68e"/><path d="M 410.74676 72.27559 L 328.54204 113.377954 L 410.74676 154.48032 Z" fill="#2cb68e"/><path d="M 410.74676 162.55906 L 328.54204 203.66142 L 410.74676 244.76378 Z" fill="#2cb68e"/><path d="M 410.74676 253.20473 L 328.54204 294.30709 L 410.74676 335.40945 Z" fill="#2cb68e"/><path d="M 329.4633 23.023623 L 410.2507 23.023623 L 410.2507 64.125985 Z" fill="#f2c108"/><path d="M 319.54204 298.8504 L 401.74676 339.95276 L 319.54204 381.05512 Z" fill="#2cb68e"/><path d="M 319.54204 389.13386 L 401.74676 430.23623 L 319.54204 471.3386 Z" fill="#2cb68e"/><path d="M 319.54204 479.77953 L 401.74676 520.8819 L 319.54204 561.98426 Z" fill="#2cb68e"/><path d="M 410.74676 343.8504 L 328.54204 384.95276 L 410.74676 426.05512 Z" fill="#2cb68e"/><path d="M 410.74676 434.13386 L 328.54204 475.23623 L 410.74676 516.3386 Z" fill="#2cb68e"/><path d="M 410.74676 524.77953 L 328.54204 565.8819 L 410.74676 606.98426 Z" fill="#2cb68e"/><path d="M 319.04598 567.715 L 401.2507 608.81738 L 319.04598 649.91974 Z" fill="#2cb68e"/><path d="M 410.2507 612.715 L 328.04598 653.81738 L 410.2507 694.91974 Z" fill="#2cb68e"/><path d="M 400.75464 699.49455 L 319.96724 699.49455 L 319.96724 658.3922 Z" fill="#f2c108"/><path d="M 510.2507 28.409449 L 428.04598 69.51181 L 510.2507 110.614174 Z" fill="#2cb68e"/><path d="M 510.2507 118.692914 L 428.04598 159.79528 L 510.2507 200.89764 Z" fill="#2cb68e"/><path d="M 510.2507 209.33858 L 428.04598 250.44095 L 510.2507 291.54331 Z" fill="#2cb68e"/><path d="M 419.04598 73.40945 L 501.2507 114.51181 L 419.04598 155.61417 Z" fill="#2cb68e"/><path d="M 419.04598 163.69291 L 501.2507 204.79528 L 419.04598 245.89764 Z" fill="#2cb68e"/><path d="M 419.04598 254.33858 L 501.2507 295.44095 L 419.04598 336.5433 Z" fill="#2cb68e"/><path d="M 500.32944 24.15748 L 419.54204 24.15748 L 419.54204 65.259843 Z" fill="#f2c108"/><path d="M 510.2507 299.98425 L 428.04598 341.08662 L 510.2507 382.18898 Z" fill="#2cb68e"/><path d="M 510.2507 390.26772 L 428.04598 431.37008 L 510.2507 472.47245 Z" fill="#2cb68e"/><path d="M 510.2507 480.9134 L 428.04598 522.01575 L 510.2507 563.1181 Z" fill="#2cb68e"/><path d="M 419.04598 344.98425 L 501.2507 386.08662 L 419.04598 427.18898 Z" fill="#2cb68e"/><path d="M 419.04598 435.26772 L 501.2507 476.37008 L 419.04598 517.47245 Z" fill="#2cb68e"/><path d="M 419.04598 525.9134 L 501.2507 567.01575 L 419.04598 608.1181 Z" fill="#2cb68e"/><path d="M 510.74676 568.84887 L 428.54204 609.95124 L 510.74676 651.0536 Z" fill="#2cb68e"/><path d="M 419.54204 613.84887 L 501.74676 654.95124 L 419.54204 696.0536 Z" fill="#2cb68e"/><path d="M 429.0381 700.6284 L 509.8255 700.6284 L 509.8255 659.52604 Z" fill="#f2c108"/><path d="M 120.71654 27.141733 L 202.92126 68.244096 L 120.71654 109.34646 Z" fill="#3498ed"/><path d="M 120.71654 117.4252 L 202.92126 158.52756 L 120.71654 199.62992 Z" fill="#2cb68e"/><path d="M 120.71654 208.07087 L 202.92126 249.17323 L 120.71654 290.2756 Z" fill="#2cb68e"/><path d="M 211.92126 72.141733 L 129.71654 113.244096 L 211.92126 154.34646 Z" fill="#33475d"/><path d="M 211.92126 162.4252 L 129.71654 203.52756 L 211.92126 244.62992 Z" fill="#2fca6d"/><path d="M 211.92126 253.07087 L 129.71654 294.17323 L 211.92126 335.2756 Z" fill="#2cb68e"/><path d="M 130.6378 22.889765 L 211.4252 22.889765 L 211.4252 63.992127 Z" fill="#f2c108"/><path d="M 120.71654 298.71654 L 202.92126 339.8189 L 120.71654 380.92126 Z" fill="#2cb68e"/><path d="M 120.71654 389 L 202.92126 430.10237 L 120.71654 471.20473 Z" fill="#2cb68e"/><path d="M 120.71654 479.64568 L 202.92126 520.74804 L 120.71654 561.8504 Z" fill="#2cb68e"/><path d="M 211.92126 343.71654 L 129.71654 384.8189 L 211.92126 425.92126 Z" fill="#2fca6d"/><path d="M 211.92126 434 L 129.71654 475.10237 L 211.92126 516.20473 Z" fill="#2fca6d"/><path d="M 211.92126 524.64568 L 129.71654 565.74804 L 211.92126 606.8504 Z" fill="#e94837"/><path d="M 120.22047 567.58116 L 202.4252 608.68352 L 120.22047 649.7859 Z" fill="#2cb68e"/><path d="M 211.4252 612.58116 L 129.22047 653.68352 L 211.4252 694.7859 Z" fill="#2fca6d"/><path d="M 201.92914 699.3607 L 121.14173 699.3607 L 121.14173 658.25832 Z" fill="#f2c108"/><path d="M 310.4252 27.275591 L 228.22047 68.377954 L 310.4252 109.480316 Z" fill="#2cb68e"/><path d="M 310.4252 117.559056 L 228.22047 158.66142 L 310.4252 199.76378 Z" fill="#2cb68e"/><path d="M 310.4252 208.20473 L 228.22047 249.30709 L 310.4252 290.40945 Z" fill="#2cb68e"/><path d="M 219.22047 72.27559 L 301.4252 113.377954 L 219.22047 154.48032 Z" fill="#2cb68e"/><path d="M 219.22047 162.55906 L 301.4252 203.66142 L 219.22047 244.76378 Z" fill="#2cb68e"/><path d="M 219.22047 253.20473 L 301.4252 294.30709 L 219.22047 335.40945 Z" fill="#2cb68e"/><path d="M 300.50394 23.023623 L 219.71654 23.023623 L 219.71654 64.125985 Z" fill="#f2c108"/><path d="M 310.4252 298.8504 L 228.22047 339.95276 L 310.4252 381.05512 Z" fill="#2cb68e"/><path d="M 310.4252 389.13386 L 228.22047 430.23623 L 310.4252 471.3386 Z" fill="#2cb68e"/><path d="M 310.4252 479.77953 L 228.22047 520.8819 L 310.4252 561.98426 Z" fill="#2cb68e"/><path d="M 219.22047 343.8504 L 301.4252 384.95276 L 219.22047 426.05512 Z" fill="#2cb68e"/><path d="M 219.22047 434.13386 L 301.4252 475.23623 L 219.22047 516.3386 Z" fill="#2cb68e"/><path d="M 219.22047 524.77953 L 301.4252 565.8819 L 219.22047 606.98426 Z" fill="#2cb68e"/><path d="M 310.92126 567.715 L 228.71654 608.81738 L 310.92126 649.91974 Z" fill="#2cb68e"/><path d="M 219.71654 612.715 L 301.92126 653.81738 L 219.71654 694.91974 Z" fill="#2cb68e"/><path d="M 229.2126 699.49455 L 310 699.49455 L 310 658.3922 Z" fill="#f2c108"/><path d="M 311.4252 28.275591 L 229.22047 69.377954 L 311.4252 110.480316 Z" fill="#2cb68e"/><path d="M 311.4252 118.559056 L 229.22047 159.66142 L 311.4252 200.76378 Z" fill="#2cb68e"/><path d="M 311.4252 209.20473 L 229.22047 250.30709 L 311.4252 291.40945 Z" fill="#2cb68e"/><path d="M 220.22047 73.27559 L 302.4252 114.377954 L 220.22047 155.48032 Z" fill="#33475d"/><path d="M 220.22047 163.55906 L 302.4252 204.66142 L 220.22047 245.76378 Z" fill="#2cb68e"/><path d="M 220.22047 254.20473 L 302.4252 295.30709 L 220.22047 336.40945 Z" fill="#2cb68f"/><path d="M 301.50394 24.023623 L 220.71654 24.023623 L 220.71654 65.125985 Z" fill="#e94837"/><path d="M 311.4252 299.8504 L 229.22047 340.95276 L 311.4252 382.05512 Z" fill="#33475d"/><path d="M 311.4252 390.13386 L 229.22047 431.23623 L 311.4252 472.3386 Z" fill="#2cb68e"/><path d="M 311.4252 480.77953 L 229.22047 521.8819 L 311.4252 562.98426 Z" fill="#ea4836"/><path d="M 220.22047 344.8504 L 302.4252 385.95276 L 220.22047 427.05512 Z" fill="#2cb68e"/><path d="M 220.22047 435.13386 L 302.4252 476.23623 L 220.22047 517.3386 Z" fill="#2cb68e"/><path d="M 220.22047 525.77953 L 302.4252 566.8819 L 220.22047 607.98426 Z" fill="#2cb68e"/><path d="M 311.92126 568.715 L 229.71654 609.81738 L 311.92126 650.91974 Z" fill="#2cb68e"/><path d="M 220.71654 613.715 L 302.92126 654.81738 L 220.71654 695.91974 Z" fill="#2cb68e"/><path d="M 230.2126 700.49455 L 311 700.49455 L 311 659.3922 Z" fill="#2fca6d"/><path d="M 320.54204 28.275591 L 402.74676 69.377954 L 320.54204 110.480316 Z" fill="#2cb68e"/><path d="M 320.54204 118.559056 L 402.74676 159.66142 L 320.54204 200.76378 Z" fill="#2cb68e"/><path d="M 320.54204 209.20473 L 402.74676 250.30709 L 320.54204 291.40945 Z" fill="#33475d"/><path d="M 411.74676 73.27559 L 329.54204 114.377954 L 411.74676 155.48032 Z" fill="#2cb68e"/><path d="M 411.74676 163.55906 L 329.54204 204.66142 L 411.74676 245.76378 Z" fill="#2fca6d"/><path d="M 411.74676 254.20473 L 329.54204 295.30709 L 411.74676 336.40945 Z" fill="#2cb68e"/><path d="M 330.4633 24.023623 L 411.2507 24.023623 L 411.2507 65.125985 Z" fill="#2fca6d"/><path d="M 320.54204 299.8504 L 402.74676 340.95276 L 320.54204 382.05512 Z" fill="#2cb68e"/><path d="M 320.54204 390.13386 L 402.74676 431.23623 L 320.54204 472.3386 Z" fill="#33475d"/><path d="M 320.54204 480.77953 L 402.74676 521.8819 L 320.54204 562.98426 Z" fill="#e94837"/><path d="M 411.74676 344.8504 L 329.54204 385.95276 L 411.74676 427.05512 Z" fill="#2cb68e"/><path d="M 411.74676 435.13386 L 329.54204 476.23623 L 411.74676 517.3386 Z" fill="#2fca6d"/><path d="M 411.74676 525.77953 L 329.54204 566.8819 L 411.74676 607.98426 Z" fill="#2cb68e"/><path d="M 320.04598 568.715 L 402.2507 609.81738 L 320.04598 650.91974 Z" fill="#2cb68e"/><path d="M 411.2507 613.715 L 329.04598 654.81738 L 411.2507 695.91974 Z" fill="#3498ed"/><path d="M 401.75464 700.49455 L 320.96724 700.49455 L 320.96724 659.3922 Z" fill="#f2c108"/><path d="M 511.2507 29.409449 L 429.04598 70.51181 L 511.2507 111.614174 Z" fill="#2cb68e"/><path d="M 511.2507 119.692914 L 429.04598 160.79528 L 511.2507 201.89764 Z" fill="#2cb68e"/><path d="M 511.2507 210.33858 L 429.04598 251.44095 L 511.2507 292.54331 Z" fill="#2cb68e"/><path d="M 420.04598 74.40945 L 502.2507 115.51181 L 420.04598 156.61417 Z" fill="#2fca6d"/><path d="M 420.04598 164.69291 L 502.2507 205.79528 L 420.04598 246.89764 Z" fill="#2fca6d"/><path d="M 420.04598 255.33858 L 502.2507 296.44095 L 420.04598 337.5433 Z" fill="#2fca6d"/><path d="M 501.32944 25.15748 L 420.54204 25.15748 L 420.54204 66.259843 Z" fill="#2fca6d"/><path d="M 511.2507 300.98425 L 429.04598 342.08662 L 511.2507 383.18898 Z" fill="#2cb68e"/><path d="M 511.2507 391.26772 L 429.04598 432.37008 L 511.2507 473.47245 Z" fill="#2fca6d"/><path d="M 511.2507 481.9134 L 429.04598 523.01575 L 511.2507 564.1181 Z" fill="#f1c201"/><path d="M 420.04598 345.98425 L 502.2507 387.08662 L 420.04598 428.18898 Z" fill="#2cb68f"/><path d="M 420.04598 436.26772 L 502.2507 477.37008 L 420.04598 518.47245 Z" fill="#2fca6d"/><path d="M 420.04598 526.9134 L 502.2507 568.01575 L 420.04598 609.1181 Z" fill="#2cb68e"/><path d="M 511.74676 569.84887 L 429.54204 610.95124 L 511.74676 652.0536 Z" fill="#2cb68e"/><path d="M 420.54204 614.84887 L 502.74676 655.95124 L 420.54204 697.0536 Z" fill="#3498ed"/><path d="M 430.0381 701.6284 L 510.8255 701.6284 L 510.8255 660.52604 Z" fill="#f2c108"/><path d="M 518.32034 28.001702 L 600.52507 69.104064 L 518.32034 110.20643 Z" fill="#2cb68e"/><path d="M 518.32034 118.28517 L 600.52507 159.38753 L 518.32034 200.48989 Z" fill="#2cb68e"/><path d="M 518.32034 208.93084 L 600.52507 250.0332 L 518.32034 291.13556 Z" fill="#2cb68e"/><path d="M 609.52507 73.0017 L 527.32034 114.104064 L 609.52507 155.20643 Z" fill="#2cb68e"/><path d="M 609.52507 163.28517 L 527.32034 204.38753 L 609.52507 245.48989 Z" fill="#2cb68e"/><path d="M 609.52507 253.93084 L 527.32034 295.0332 L 609.52507 336.13556 Z" fill="#2cb68e"/><path d="M 528.2416 23.749733 L 609.029 23.749733 L 609.029 64.852096 Z" fill="#f2c108"/><path d="M 518.32034 299.5765 L 600.52507 340.67887 L 518.32034 381.78123 Z" fill="#2cb68e"/><path d="M 518.32034 389.85997 L 600.52507 430.96234 L 518.32034 472.0647 Z" fill="#2cb68e"/><path d="M 518.32034 480.50564 L 600.52507 521.608 L 518.32034 562.71037 Z" fill="#2cb68e"/><path d="M 609.52507 344.5765 L 527.32034 385.67887 L 609.52507 426.78123 Z" fill="#2cb68e"/><path d="M 609.52507 434.85997 L 527.32034 475.96234 L 609.52507 517.0647 Z" fill="#2cb68e"/><path d="M 609.52507 525.50564 L 527.32034 566.608 L 609.52507 607.71037 Z" fill="#2cb68e"/><path d="M 517.82428 568.44113 L 600.029 609.5435 L 517.82428 650.64585 Z" fill="#2cb68e"/><path d="M 609.029 613.44113 L 526.82428 654.5435 L 609.029 695.64585 Z" fill="#2cb68e"/><path d="M 599.53294 700.22066 L 518.74554 700.22066 L 518.74554 659.1183 Z" fill="#f2c108"/><path d="M 709.029 29.13556 L 626.82428 70.23792 L 709.029 111.340285 Z" fill="#2cb68e"/><path d="M 709.029 119.419025 L 626.82428 160.52139 L 709.029 201.62375 Z" fill="#2cb68e"/><path d="M 709.029 210.0647 L 626.82428 251.16706 L 709.029 292.26942 Z" fill="#2cb68e"/><path d="M 617.82428 74.13556 L 700.029 115.23792 L 617.82428 156.34028 Z" fill="#2cb68e"/><path d="M 617.82428 164.41902 L 700.029 205.52139 L 617.82428 246.62375 Z" fill="#2cb68e"/><path d="M 617.82428 255.0647 L 700.029 296.16706 L 617.82428 337.26942 Z" fill="#2cb68e"/><path d="M 699.10774 24.883591 L 618.32034 24.883591 L 618.32034 65.985953 Z" fill="#f2c108"/><path d="M 709.029 300.71037 L 626.82428 341.81273 L 709.029 382.9151 Z" fill="#2cb68e"/><path d="M 709.029 390.99383 L 626.82428 432.0962 L 709.029 473.19856 Z" fill="#2cb68e"/><path d="M 709.029 481.6395 L 626.82428 522.74186 L 709.029 563.84423 Z" fill="#2cb68e"/><path d="M 617.82428 345.71037 L 700.029 386.81273 L 617.82428 427.9151 Z" fill="#2cb68e"/><path d="M 617.82428 435.99383 L 700.029 477.0962 L 617.82428 518.19856 Z" fill="#2cb68e"/><path d="M 617.82428 526.6395 L 700.029 567.74186 L 617.82428 608.84423 Z" fill="#2cb68e"/><path d="M 709.52507 569.575 L 627.32034 610.67735 L 709.52507 651.7797 Z" fill="#2cb68e"/><path d="M 618.32034 614.575 L 700.52507 655.67735 L 618.32034 696.7797 Z" fill="#2cb68e"/><path d="M 627.8164 701.3545 L 708.6038 701.3545 L 708.6038 660.25215 Z" fill="#f2c108"/><path d="M 519.32034 29.001702 L 601.52507 70.104064 L 519.32034 111.20643 Z" fill="#33475d"/><path d="M 519.32034 119.28517 L 601.52507 160.38753 L 519.32034 201.48989 Z" fill="#2cb68e"/><path d="M 519.32034 209.93084 L 601.52507 251.0332 L 519.32034 292.13556 Z" fill="#2cb68e"/><path d="M 610.52507 74.0017 L 528.32034 115.104064 L 610.52507 156.20643 Z" fill="#2ab78f"/><path d="M 610.52507 164.28517 L 528.32034 205.38753 L 610.52507 246.48989 Z" fill="#2fca6d"/><path d="M 610.52507 254.93084 L 528.32034 296.0332 L 610.52507 337.13556 Z" fill="#2cb68e"/><path d="M 529.2416 24.749733 L 610.029 24.749733 L 610.029 65.852096 Z" fill="#f2c108"/><path d="M 519.32034 300.5765 L 601.52507 341.67887 L 519.32034 382.78123 Z" fill="#e94837"/><path d="M 519.32034 390.85997 L 601.52507 431.96234 L 519.32034 473.0647 Z" fill="#2cb68e"/><path d="M 519.32034 481.50564 L 601.52507 522.608 L 519.32034 563.71037 Z" fill="#f1c200"/><path d="M 610.52507 345.5765 L 528.32034 386.67887 L 610.52507 427.78123 Z" fill="#2cb68e"/><path d="M 610.52507 435.85997 L 528.32034 476.96234 L 610.52507 518.0647 Z" fill="#e94837"/><path d="M 610.52507 526.50564 L 528.32034 567.608 L 610.52507 608.71037 Z" fill="#2cb68e"/><path d="M 518.82428 569.44113 L 601.029 610.5435 L 518.82428 651.64585 Z" fill="#2cb68e"/><path d="M 610.029 614.44113 L 527.82428 655.5435 L 610.029 696.64585 Z" fill="#33475d"/><path d="M 600.53294 701.22066 L 519.74554 701.22066 L 519.74554 660.1183 Z" fill="#f2c108"/><path d="M 710.029 30.13556 L 627.82428 71.23792 L 710.029 112.340285 Z" fill="#2cb68e"/><path d="M 710.029 120.419025 L 627.82428 161.52139 L 710.029 202.62375 Z" fill="#2cb68e"/><path d="M 710.029 211.0647 L 627.82428 252.16706 L 710.029 293.26942 Z" fill="#e94837"/><path d="M 618.82428 75.13556 L 701.029 116.23792 L 618.82428 157.34028 Z" fill="#2cb68e"/><path d="M 618.82428 165.41902 L 701.029 206.52139 L 618.82428 247.62375 Z" fill="#2cb68e"/><path d="M 618.82428 256.0647 L 701.029 297.16706 L 618.82428 338.26942 Z" fill="#e94837"/><path d="M 700.10774 25.883591 L 619.32034 25.883591 L 619.32034 66.985953 Z" fill="#f2c108"/><path d="M 710.029 301.71037 L 627.82428 342.81273 L 710.029 383.9151 Z" fill="#2cb68e"/><path d="M 710.029 391.99383 L 627.82428 433.0962 L 710.029 474.19856 Z" fill="#2cb68e"/><path d="M 710.029 482.6395 L 627.82428 523.74186 L 710.029 564.84423 Z" fill="#2cb68e"/><path d="M 618.82428 346.71037 L 701.029 387.81273 L 618.82428 428.9151 Z" fill="#2cb68e"/><path d="M 618.82428 436.99383 L 701.029 478.0962 L 618.82428 519.19856 Z" fill="#e94837"/><path d="M 618.82428 527.6395 L 701.029 568.74186 L 618.82428 609.84423 Z" fill="#2cb68e"/><path d="M 710.52507 570.575 L 628.32034 611.67735 L 710.52507 652.7797 Z" fill="#2fca6d"/><path d="M 619.32034 615.575 L 701.52507 656.67735 L 619.32034 697.7797 Z" fill="#e94837"/><path d="M 628.8164 702.3545 L 709.6038 702.3545 L 709.6038 661.25215 Z" fill="#2cb68e"/><path d="M 111.204725 25.781046 L 29 66.88341 L 111.204725 107.98577 Z" fill="#2cb68e"/><path d="M 111.204725 116.06451 L 29 157.16687 L 111.204725 198.26924 Z" fill="#2cb68e"/><path d="M 111.204725 206.71018 L 29 247.81254 L 111.204725 288.9149 Z" fill="#2cb68e"/><path d="M 20 70.781046 L 102.204725 111.88341 L 20 152.98577 Z" fill="#2cb68e"/><path d="M 20 161.06451 L 102.204725 202.16687 L 20 243.26924 Z" fill="#2cb68e"/><path d="M 20 251.71018 L 102.204725 292.81254 L 20 333.9149 Z" fill="#2cb68e"/><path d="M 101.283465 21.529077 L 20.496063 21.529077 L 20.496063 62.63144 Z" fill="#f2c108"/><path d="M 111.204725 297.35585 L 29 338.45821 L 111.204725 379.56058 Z" fill="#2cb68e"/><path d="M 111.204725 387.63932 L 29 428.74168 L 111.204725 469.84404 Z" fill="#2cb68e"/><path d="M 111.204725 478.285 L 29 519.38735 L 111.204725 560.4897 Z" fill="#2cb68e"/><path d="M 20 342.35585 L 102.204725 383.45821 L 20 424.56058 Z" fill="#2cb68e"/><path d="M 20 432.63932 L 102.204725 473.74168 L 20 514.84404 Z" fill="#2cb68e"/><path d="M 20 523.285 L 102.204725 564.38735 L 20 605.4897 Z" fill="#2cb68e"/><path d="M 111.70079 566.22047 L 29.496063 607.32283 L 111.70079 648.4252 Z" fill="#2cb68e"/><path d="M 20.496063 611.22047 L 102.70079 652.32283 L 20.496063 693.4252 Z" fill="#2cb68e"/><path d="M 29.992126 698 L 110.77953 698 L 110.77953 656.89764 Z" fill="#f2c108"/><path d="M 112.204725 26.781046 L 30 67.88341 L 112.204725 108.98577 Z" fill="#3498ed"/><path d="M 112.204725 117.06451 L 30 158.16687 L 112.204725 199.26924 Z" fill="#2cb68e"/><path d="M 112.204725 207.71018 L 30 248.81254 L 112.204725 289.9149 Z" fill="#2cb68e"/><path d="M 21 71.781046 L 103.204725 112.88341 L 21 153.98577 Z" fill="#2cb68e"/><path d="M 21 162.06451 L 103.204725 203.16687 L 21 244.26924 Z" fill="#2cb68e"/><path d="M 21 252.71018 L 103.204725 293.81254 L 21 334.9149 Z" fill="#2fca6d"/><path d="M 102.283465 22.529077 L 21.496063 22.529077 L 21.496063 63.63144 Z" fill="#e94837"/><path d="M 112.204725 298.35585 L 30 339.45821 L 112.204725 380.56058 Z" fill="#2fca6d"/><path d="M 112.204725 388.63932 L 30 429.74168 L 112.204725 470.84404 Z" fill="#2fca6d"/><path d="M 112.204725 479.285 L 30 520.38735 L 112.204725 561.4897 Z" fill="#2fca6d"/><path d="M 21 343.35585 L 103.204725 384.45821 L 21 425.56058 Z" fill="#2cb68e"/><path d="M 21 433.63932 L 103.204725 474.74168 L 21 515.84404 Z" fill="#2cb68e"/><path d="M 21 524.285 L 103.204725 565.38735 L 21 606.4897 Z" fill="#2cb68e"/><path d="M 112.70079 567.22047 L 30.496063 608.32283 L 112.70079 649.4252 Z" fill="#2fca6d"/><path d="M 21.496063 612.22047 L 103.70079 653.32283 L 21.496063 694.4252 Z" fill="#2cb68e"/><path d="M 30.992126 699 L 111.77953 699 L 111.77953 657.89764 Z" fill="#f2c108"/></g></g></svg>
